<?xml version="1.0" encoding="utf-8"?>
<!-- Generator: Adobe Illustrator 22.1.0, SVG Export Plug-In . SVG Version: 6.00 Build 0)  -->
<svg version="1.1" id="Layer_1" xmlns="http://www.w3.org/2000/svg" xmlns:xlink="http://www.w3.org/1999/xlink" x="0px" y="0px"
	 viewBox="0 0 566.9 566.9" style="enable-background:new 0 0 566.9 566.9;" xml:space="preserve">
<style type="text/css">
	.st0{fill:none;stroke:#000000;stroke-width:14;stroke-miterlimit:10;}
</style>
<g id="Muis">
	<g>
		<path class="st0" d="M290.6,348h-14.3c-40.3,0-73.4-33-73.4-73.4V145.4C203,105,236,72,276.4,72h14.3c40.3,0,73.4,33,73.4,73.4
			v129.3C364,315,331,348,290.6,348z"/>
	</g>
	<path d="M283,184L283,184c-3.3,0-6-2.7-6-6v-61.3c0-3.3,2.7-6,6-6l0,0c3.3,0,6,2.7,6,6V178C289,181.3,286.3,184,283,184z"/>
</g>
<g id="Pijl">
	<path d="M283,485L283,485c-3.9,0-7-3.2-7-7v-92c0-3.9,3.2-7,7-7l0,0c3.9,0,7,3.2,7,7v92C290,481.8,286.9,485,283,485z"/>
	<path d="M285.5,481.6l-1.5,1c-2.8,1.9-6.6,1.1-8.5-1.7l-30.8-45.7c-1.9-2.8-1.1-6.6,1.7-8.5l1.5-1c2.8-1.9,6.6-1.1,8.5,1.7
		l30.8,45.7C289.1,476,288.3,479.8,285.5,481.6z"/>
	<path d="M280.9,481.6l1.5,1c2.8,1.9,6.6,1.1,8.5-1.7l30.8-45.7c1.9-2.8,1.1-6.6-1.7-8.5l-1.5-1c-2.8-1.9-6.6-1.1-8.5,1.7
		l-30.8,45.7C277.4,476,278.1,479.8,280.9,481.6z"/>
</g>
</svg>
