<?xml version="1.0" encoding="utf-8"?>
<!-- Generator: Adobe Illustrator 22.1.0, SVG Export Plug-In . SVG Version: 6.00 Build 0)  -->
<svg version="1.1" id="Layer_1" xmlns="http://www.w3.org/2000/svg" xmlns:xlink="http://www.w3.org/1999/xlink" x="0px" y="0px"
	 viewBox="0 0 566.9 566.9" style="enable-background:new 0 0 566.9 566.9;" xml:space="preserve">
<style type="text/css">
	.st0{font-family:'Raleway-Bold';}
	.st1{font-size:89.5679px;}
	.st2{fill:none;stroke:#000000;stroke-width:4;stroke-miterlimit:10;}
</style>
<text transform="matrix(1 0 0 1 141 297)" class="st0 st1">PAY</text>
<path class="st2" d="M395,331h-65c-6.6,0-12-5.4-12-12V209c0-6.6,5.4-12,12-12h65c6.6,0,12,5.4,12,12v110
	C407,325.6,401.6,331,395,331z"/>
<circle cx="363" cy="319" r="5"/>
<circle cx="344.5" cy="206.5" r="2.5"/>
<path d="M369.5,209h-13c-1.4,0-2.5-1.1-2.5-2.5l0,0c0-1.4,1.1-2.5,2.5-2.5h13c1.4,0,2.5,1.1,2.5,2.5l0,0
	C372,207.9,370.9,209,369.5,209z"/>
</svg>
